# xmcd
#
# Track frame offsets: 
#        150
#        15407
#        35409
#        52103
#        68448
#        90560
#        118967
#        153363
#        169446
#        185002
#        196877
#        211507
#        223231
#        237614
#        244875
#        274805
#        291760
#        317893
#
# Disc length: 4547 seconds
#
# Revision: 0
# Processed by: cddbd v1.5.1PL0 Copyright (c) Steve Scherf et al.
# Submitted via: ExactAudioCopy v0.95a4
#
DISCID=0f11c112
DTITLE=Van Morrison - Fælledparken
DYEAR=1992
DGENRE=Celtic
TTITLE0=Ordinary Life
TTITLE1=Some Peace Of Mind
TTITLE2=Cleaning Windows > Be Bop A Lula
TTITLE3=Why Must I Always Explain
TTITLE4=So Quiet In Here > That's Where It's At
TTITLE5=I'm Not Feeling It Anymore
TTITLE6=See Me Through > Soldier Of Fortune
TTITLE7=Help Me
TTITLE8=Foreign Window
TTITLE9=By His Grace
TTITLE10=Whenever God Shines His Light
TTITLE11=Enlightenment
TTITLE12=Star Of The County Down
TTITLE13=Intermission
TTITLE14=Vanlose Stairway > Trans-Euro Train
TTITLE15=It's All In The Game > Make It Real One More Time
TTITLE16=In The Garden > Daring Night
TTITLE17=Gloria
EXTD=
EXTT0=
EXTT1=
EXTT2=
EXTT3=
EXTT4=
EXTT5=
EXTT6=
EXTT7=
EXTT8=
EXTT9=
EXTT10=
EXTT11=
EXTT12=
EXTT13=
EXTT14=
EXTT15=
EXTT16=
EXTT17=
PLAYORDER=
